# xmcd
#
# Track frame offsets: 
#        150
#        16481
#        30575
#        42592
#        59889
#        81642
#        97113
#        113796
#        135115
#        154243
#        182817
#        196773
#        208930
#        222374
#        238593
#        260594
#        280112
#        293475
#        309126
#        331076
#
# Disc length: 4647 seconds
#
# Revision: 0
# Processed by: cddbd v1.5.2PL0 Copyright (c) Steve Scherf et al.
# Submitted via: ExactAudioCopy v0.95b3
#
DISCID=27122514
DTITLE=Jo-El Sonnier - Come On Joe and Have A Little Faith
DYEAR=2012
DGENRE=Country
TTITLE0=Baby Hold On
TTITLE1=Paid The Price
TTITLE2=So Long Baby Goodbye
TTITLE3=No More One Time
TTITLE4=Come On Joe
TTITLE5=Say You Love Me
TTITLE6=Rainin' In My Heart
TTITLE7=Lousinana 1927
TTITLE8=Tear Stained Letter
TTITLE9=I've Slipped Her Mind
TTITLE10=The Scene Of The Crime
TTITLE11=If Your Heart Should Ever Roll This Way Again
TTITLE12=Ooh Ooh Ooh
TTITLE13=Have A Little Faith In Me
TTITLE14=I'll Never Get Over You
TTITLE15=The Hurt In My Heart
TTITLE16=Solid Gold Plated Fool
TTITLE17=(Blue Blue Blue) Blue Blue
TTITLE18=Walls
TTITLE19=Evangeline Special
EXTD=
EXTT0=
EXTT1=
EXTT2=
EXTT3=
EXTT4=
EXTT5=
EXTT6=
EXTT7=
EXTT8=
EXTT9=
EXTT10=
EXTT11=
EXTT12=
EXTT13=
EXTT14=
EXTT15=
EXTT16=
EXTT17=
EXTT18=
EXTT19=
PLAYORDER=
